<?xml version="1.0" encoding="UTF-8"?>
<svg id="Layer_1" data-name="Layer 1" xmlns="http://www.w3.org/2000/svg" version="1.1" viewBox="0 0 595 842">
  <defs>
    <style>
      .cls-1 {
        fill: #1d1d1b;
        fill-rule: evenodd;
        stroke-width: 0px;
      }
    </style>
  </defs>
  <path class="cls-1" d="M353.87,315.41h-.28c-.56-.56-1.02-1.02-1.48-1.67h-.28c-.09-.09-.19-.09-.19-.09-.93-.46-1.67-.83-2.5-1.3h-.37c-1.3-.18-2.69-.18-4.26,0h-.09l-.09.09h.09c-.65.09-1.21.28-1.67.56h0l-.09.09v.09h0c-1.11.84-2.04,1.76-2.87,2.69h0l-.09.09v.28h0c-.37.93-.74,1.95-1.3,2.87v.37c.19.93,0,1.58-.37,1.94h0v.09h0c-.09.19-.09.37,0,.46.28.46.46,1.21.37,2.13h0v.09h.19c.28.65.55,1.39.83,2.04h0v.19h0c.46.18.83.46,1.02.92.19.19.28.28.46.46.65.46,1.39.74,2.22.93.56.28.93.55,1.3.92h4.08l.09-.18-.09-.19h0c.93-.28,1.76-.46,2.5-.74h0v-.09h0c.65-.83,1.3-1.57,2.04-2.41.18-.09.28-.37.28-.55.46-1.2.93-2.32,1.57-3.43h0v-.09h0v-3.89h0v-.18h-.09c-.28-.83-.56-1.67-.93-2.32h0v-.18h0ZM343.78,315.68c.28-.19.46-.37.56-.65,1.48-.56,2.96-.65,4.63-.09.09,0,.28,0,.46.09,1.02.74,1.95,1.67,2.78,2.78v3.52h0v.19h0c-.46.84-.83,1.67-1.11,2.59h0v.28h0c-.83.93-1.85,1.76-2.96,2.5h0l-.28.28h-3.34c-.46-.28-.93-.56-1.39-.74h-.28c-.65-.83-1.2-1.67-1.57-2.5-.09-.18-.19-.37-.28-.56h0l-.18-.09h0v-2.68c.46-1.02.93-2.04,1.48-3.15.28-.37.65-.74,1.11-1.2.09-.28.28-.46.37-.56h0Z"/>
  <path class="cls-1" d="M361.84,319.21c-.28,0-.56.28-.74.65-.37.56-.65,1.11-.93,1.57-.28.37-.56.65-.83,1.11-.83,1.3-1.67,2.69-2.41,4.07-1.39,2.22-2.78,4.35-4.45,6.3h-.09c.09.28.19.46.37.46,2.69,1.67,5.28,3.52,7.87,5.37h.09l.28.19h0c.19.09.46.09.74,0,.19-.19.37-.46.65-.93.09-.28.19-.46.19-.56.09-.28,0-.46-.19-.65-.37-.18-.65-.46-1.11-.65-.65-.37-1.3-.74-1.95-1.11-1.3-.55-2.41-1.39-3.33-2.41,1.11-1.85,2.22-3.61,3.52-5.28.09-.09.18-.28.28-.46,1.11-2.04,2.22-3.98,3.43-5.84h.37v-.09h0c-.09-.83-.37-1.3-1.02-1.48-.28-.28-.46-.37-.74-.28h0Z"/>
  <path class="cls-1" d="M381.85,334.12c0-.19-.09-.28-.28-.46-.65-.74-1.3-1.48-2.13-2.13-1.85-1.21-4.17-1.48-7.04-.83-2.69,1.3-4.54,3.43-5.84,6.11h0v-.09h0c-.09.19-.09.37-.09.56,0,.74-.19,1.2-.56,1.48h0v.19h0v.37c.19,1.02.28,2.04.46,3.06h0v.28l.09.09h0c.18.37.37.84.56,1.3h0l.09.09h.09c.65.83,1.48,1.58,2.22,2.32h.09c.18.09.28.09.37.09.65.28,1.2.56,1.57,1.02h0l.28.18h0c.09-.09.18-.09.28,0,1.48.19,3.06.19,4.63,0h0l.09-.18v-.09h0c.74-.37,1.39-.65,2.13-1.02.83-.93,1.57-1.85,2.41-2.87.74-.93,1.39-1.95,1.94-3.15h0v-.37h0v-3.52h0v-.19l-.09-.09h-.19c-.19-.09-.19-.37-.28-.56-.19-.28-.37-.65-.46-1.02-.09-.19-.19-.37-.37-.56h0ZM372.12,333.84c1.48-.83,2.96-.93,4.54-.65,1.11.28,1.95.83,2.41,1.76.28.37.65.56,1.02.74.65,1.58.56,3.24-.19,4.91-.37.74-.83,1.39-1.39,2.04-.46.46-.83.93-1.3,1.3-.09.09-.19.28-.37.56-.46.09-.83.28-1.3.46h0l-.09.18h-2.96c-.56-.18-1.02-.46-1.48-.65h-.28c-.37-.46-.74-.92-1.2-1.2h0l-.09-.19h0c-.09-.46-.28-.93-.46-1.39h-.28v-3.06h0v-.37h0c.46-.46.74-1.11,1.02-1.76,0-.19.09-.28.19-.37.74-.65,1.48-1.39,2.13-2.13q.09-.09.09-.19h0Z"/>
  <path class="cls-1" d="M381.1,348.75v.09h0c-.09.09-.19.28-.19.28-.37.93-.74,1.67-1.3,2.5h0v.28h0v3.34h0l.19.18h.09c1.02,4.26,3.98,6.76,8.8,7.5.09-.09.28-.18.37-.37h0v.09h0c1.48-1.2,2.87-2.5,4.35-3.7h0v-.46h-.28c-1.2-1.67-2.59-3.33-3.89-4.82-.09-.18-.09-.28-.28-.18-.74-.09-1.3.18-1.48.83h-.19v.28h0c.65,1.39,1.48,2.59,2.59,3.8h0v.09h0c-.74.56-1.39,1.11-2.04,1.85-.37-.09-.65-.19-.93-.37-.09-.09-.19-.28-.28-.28-.37-.09-.65-.09-1.02-.19-.19-.09-.37-.19-.56-.28-.28-.18-.56-.46-.83-.74-.74-1.02-1.48-2.13-2.13-3.33h0v-.28h0v-2.5c.46-.74,1.02-1.57,1.57-2.22,1.39-1.85,3.43-2.87,6.21-3.24,0,.09.19.18.28.18.83.28,1.48.65,2.13.93.09.09.09.19.18.19.56.46,1.11.92,1.67,1.39h0v.28h0c.18.46.46.93.74,1.39v2.31c-.09,0-.28.09-.28.19-.46.65-.65,1.11-.46,1.48.09.37.46.65,1.02.74.28.28.46.37.65.37.19-.19.37-.46.56-.84.28-.56.65-.92,1.02-1.3h0v-.46h0v-2.5h0l-.09-.09h0c-.18-.09-.18-.28-.28-.37,0-.19-.09-.37-.19-.46-.83-1.48-1.76-2.78-2.78-3.98h-.19c0-.09-.09-.19-.19-.28-.83-.46-1.76-.83-2.59-1.3h-4.26c-.65.28-1.3.65-1.85.93-1.48.83-2.78,1.85-3.89,3.06h0Z"/>
  <path class="cls-1" d="M388.61,367.09v.09h-.19c0,.19.09.28.19.46.37.46.83,1.02,1.39,1.48h.18c3.24-2.04,6.48-4.08,9.63-6.21h0v.09h0c.09-.18.28-.28.46-.46.83-.83,1.95-1.48,3.24-1.95h.09v-.09l.19-.18h0c.37-.56.19-1.02-.56-1.67h0v-.18h0c-.09-.09-.28-.18-.37-.18-.37-.19-.56-.09-.65.09-.28.28-.46.65-.74.83-4.35,2.59-8.61,5.19-12.87,7.87h0Z"/>
  <path class="cls-1" d="M393.79,373.48v.19h0c-.09,2.41.37,4.35,1.3,5.84.93,1.48,2.04,2.59,3.71,3.34h3.61c.56,0,.83-.09,1.02-.28,0-.28-.19-.55-.46-1.02h0v-.19h0c0-.37-.09-.56-.28-.56-1.02-.19-2.13-.37-3.24-.37h0l-.09-.18h0c-.46-.19-.93-.37-1.3-.46q-.09-.18-.19-.28c-.65-.74-1.2-1.58-1.57-2.59h0v-.19h0v-2.31h0l.09-.09h0c.09-.65.28-1.02.56-1.3,1.02-1.11,2.22-1.95,3.52-2.69,1.3-.74,2.87-1.2,4.72-1.2.65.28,1.2.65,1.67,1.02.28.19.46.28.65.46.46.83,1.02,1.57,1.48,2.41h0v.19h0v2.31h0l-.28.19h0c-.09.46-.46.92-.74,1.2h0v.28l-.19.09h0c-.28.56,0,1.2.93,1.76.19.09.37.18.46.18.65-.18,1.11-.65,1.39-1.3.37-.65.65-1.2.93-1.85v-3.33h0l-.19-.09h-.09c-.09-.19-.19-.37-.19-.56-.93-1.57-1.95-3.06-3.24-4.26h0l-.09-.09h-.09c-1.85-1.02-3.98-1.2-6.58-.65-1.57.65-2.96,1.58-4.17,2.59-1.2,1.02-2.22,2.32-3.06,3.8h0Z"/>
  <path class="cls-1" d="M412.88,382.75c-1.02.37-2.04.74-3.06,1.11-2.13.65-4.08,1.3-6.02,2.04-1.39.46-2.87.93-4.35,1.39h0v.09h0c-.09.83,0,1.39.37,1.85.19.09.37.18.56.18,1.85-.28,3.61-.74,5.09-1.39h.19c1.2.37,2.22,1.02,2.96,1.85-.83,1.2-1.76,2.41-2.69,3.52,0,.09-.09.28-.19.37-1.2,1.2-2.13,2.5-2.78,3.98h-.09v.28h0c.19.83.46,1.67.93,2.41h0v.28h-.19c0,.09.09.28.19.37.19.65.28,1.3.28,2.13h0v.28h.46c1.76,0,3.43.19,4.82.65h0v.19h0c.56,2.13.93,4.26,1.3,6.58h-.09c-1.39.74-2.59,1.58-3.98,2.32-.18.09-.18.18-.18.37-.19.74-.09,1.39.09,2.04h0v.18h0c.28.19.37.19.56.09,1.02-.46,1.94-1.02,2.87-1.67,1.11-.84,2.22-1.58,3.43-2.32.28-.09.46-.18.65-.18.46-.28.74-.56,1.2-.83.83-.55,1.67-1.11,2.59-1.67.19-.09.37-.28.56-.37.65-.83,1.67-1.3,2.87-1.67h.09v-.09h0c.74-.28.93-.93.74-2.04h0l-.09-.19h0c-.09-.09-.09-.18-.09-.37-.18-.28-.28-.46-.46-.37-5.84-1.29-11.76-2.41-17.51-3.61.19.09.28,0,.37-.09,2.13-3.42,4.45-6.67,7.04-9.63,1.3.74,2.5,1.48,3.89,2.13,1.39.74,2.78,1.39,4.17,2.04h.09v-.19h.18c-.09-.19-.09-.28-.18-.37-.19-.93-.56-1.85-1.02-2.69h-.09l-.09-.09h-.18c-3.15-1.39-6.3-2.96-9.36-4.72,2.32-.65,4.45-1.39,6.48-2.22.18,0,.28-.09.37-.09.28-.28.46-.46.46-.74.09-.28-.09-.55-.37-.74.09-.46,0-.74-.28-.92-.18-.09-.55-.09-1.11,0-.46.18-.93.37-1.39.56h0ZM412.32,407.75v-.65c-.09-.93-.28-1.76-.46-2.59,2.22.55,4.54.83,7.04,1.02-1.76,1.39-3.71,2.59-5.84,3.71h0l-.18.09h0c-.46-.18-.65-.74-.56-1.57h0Z"/>
  <path class="cls-1" d="M422.42,403.22v1.02c-.09.28,0,.56.19.65,1.02.46,2.04,1.02,2.96,1.58h0l.28.28.18.28h.09l.09-.09v-.19h0c-.09-.56-.09-1.2,0-2.13h0v-.09h-.19c-.09-.19-.28-.37-.46-.37-.37-.28-.74-.46-1.11-.56-.65-.18-1.2-.37-1.85-.56h-.09v.19h-.09Z"/>
  <path class="cls-1" d="M422.42,425.08v-.09h-.46c-1.48-.74-3.06-.74-4.72,0h0l-.18.09v.28h0c-.28.28-.65.46-1.02.65h0v.09h0c-.56,1.48-1.11,2.96-1.48,4.63-.37,1.48-.93,2.69-1.67,3.8,0,0-.09,0-.19.09-.37.19-.93.37-1.67.28-.46-.28-.74-.65-1.11-1.02-.37-.55-.74-1.11-.93-1.76h0v-.19h0c0-1.57.19-2.96.65-4.07.09,0,.19-.09.28-.09.37-.46.74-.93,1.11-1.39h.19c.74,0,1.2-.19,1.48-.46.19-.37.37-.83.19-1.48.09-.37.09-.56,0-.65-.09-.19-.28-.28-.56-.09-.19,0-.37,0-.46.09-1.02.19-1.95.56-2.69.93h-.19v.28h0c-.37.19-.74.46-1.02.74h0v.19h0c0,.09-.19.18-.19.18-.18.83-.56,1.48-.93,2.13h0v.19h0v4.91h0l.19.09h0c.09.19.28.37.46.56.37.93.83,1.85,1.48,2.69h.56c.46.09.93.28,1.3.65h0l.19.09h1.67l.19-.19h0c.65-.19,1.2-.37,1.67-.55h.09v-.37h0c.28-.28.56-.46.93-.74h0l.09-.09h0c.74-1.39,1.2-2.87,1.57-4.63v-.37c.19-1.95,1.02-3.15,2.5-3.71h.28c.74.56,1.48,1.2,2.04,1.95h0v.37h0c.09,1.39,0,2.68-.37,3.7-.28.37-.65.65-1.02,1.02-.19.09-.37.19-.56.19-.74,0-1.2.37-1.3,1.02v.46c0,.65.09,1.02.09,1.2.09.09.28.18.37.09h0l.19-.09h.28c1.67-.19,2.96-.74,3.71-1.85h0v-.19h0c.09-.09.09-.19.09-.19.18-.56.37-1.02.65-1.3h0v-.28h0v-.28c.28-1.57.28-3.24,0-5.09h0l-.09-.09h-.19c-.19-.37-.37-.83-.46-1.3h0v-.09h-.28c-.28-.28-.56-.65-.74-.93h0Z"/>
  <path class="cls-1" d="M420.75,442.12c-.56-.18-1.11-.28-1.67-.46-1.2-.19-2.5-.37-3.89-.46-.65-.09-1.2-.09-1.67-.19-1.2-.18-2.5-.37-3.61-.65h-.37c-1.02.09-1.67-.09-2.04-.37h0l-.37-.09h-.09l-.19.09h0c0,.74-.19,1.3-.56,1.57h0l-.09.09v.19h0c.37.74,1.2,1.11,2.69,1.02.18,0,.37-.09.65-.09,1.3,0,2.41.28,3.34.74-.19,1.3-.37,2.5-.46,3.89-.09.09-.09.19-.09.28-.09,1.11-.19,2.13-.09,3.24h0l.18.18h0c.19.65.37,1.11.46,1.67h0v.09h.28c.37.28.65.65.83,1.02h.09c.09.09.18.09.18.19.56.19,1.11.37,1.58.65.09-.09.18-.09.28,0,1.85.09,3.34-.19,4.45-.83.09-.09.18-.28.28-.37.19-.09.28-.28.37-.46.28-.93.65-1.76,1.2-2.41.09-1.76.28-3.43.65-5,0-.37,0-.65.19-.93.37-.83.28-1.48-.19-1.95-.37-.46-.93-.74-1.85-.65h-.46ZM420.66,444.71c-.19,1.11-.37,2.32-.56,3.61v.46c-.18,1.02-.46,1.95-.83,2.78-.46.09-1.02.18-1.57.18-.93.19-1.58.09-2.04-.18-.65-.74-.93-1.67-1.02-2.97v-.46c.46-.46.56-1.11.56-2.04v-.46c0-.56.09-1.11.09-1.58,1.76.09,3.52.37,5.19.65h.19Z"/>
  <path class="cls-1" d="M423.9,487.41c.93.28,1.95.09,2.78-.46h0l16.12-9.82,8.15,17.41h0c.37.83,1.11,1.48,2.04,1.76.93.37,1.85.37,2.78-.09.93-.37,1.57-1.02,1.94-1.95.37-.92.28-1.94-.09-2.87h0l-9.54-20.47h0c3.52-13.24,5.28-27.14,5.37-41.77-.09-43.54-15.47-80.68-46.22-111.34-26.12-26.21-56.96-41.31-92.25-45.2-.37-4.17-2.04-7.78-5.1-10.84-3.52-3.52-7.87-5.28-12.87-5.28s-9.17,1.76-12.69,5.28c-3.52,3.52-5.28,7.78-5.28,12.78-.09.46-.09,1.02,0,1.48.37,4.35,2.13,8.06,5.28,11.3,3.52,3.52,7.78,5.28,12.69,5.37,5-.09,9.17-1.85,12.69-5.37h.18c2.13-2.22,3.61-4.72,4.45-7.41,33.62,3.8,62.89,18.15,87.81,43.07,29.18,29.27,43.81,64.65,43.81,106.15,0,14.17-1.76,27.69-5.19,40.57h0l-17.78,11.02h0c-.93.55-1.48,1.39-1.76,2.41-.28.93-.18,1.76.28,2.69.56.83,1.39,1.39,2.41,1.58h0ZM307.75,274.56v1.2c-.28,2.41-1.3,4.45-3.15,6.3-2.04,2.04-4.63,3.15-7.6,3.15s-5.37-1.11-7.41-3.15c-1.85-1.85-2.96-3.98-3.24-6.58h0v-.09h0v-.83c.09-2.96,1.11-5.56,3.24-7.6,2.04-2.13,4.54-3.15,7.41-3.15s5.56,1.02,7.6,3.15c2.13,2.04,3.15,4.63,3.15,7.6h0Z"/>
  <path class="cls-1" d="M434.74,496.95c-2.78-1.58-5.84-2.41-9.26-2.41-4.91-.09-9.17,1.67-12.6,5.19h0v.18h0c-3.61,3.43-5.37,7.69-5.37,12.6-.09,4.63,1.39,8.52,4.35,11.86-3.06,3.71-6.3,7.32-9.73,10.84-29.46,29.27-64.84,43.9-106.33,44-40.01,0-74.47-13.71-103.09-41.13h0v-20.94h0c-.09-1.02-.46-1.85-1.11-2.59-.74-.74-1.67-1.11-2.69-1.11s-1.85.37-2.59,1.11-1.11,1.57-1.02,2.59h0v18.9l-16.02.09h0c-1.02,0-1.85.37-2.59,1.11-.74.65-1.11,1.58-1.11,2.59.09,1.02.46,1.85,1.2,2.69.65.65,1.48,1.02,2.5.93h0l18.25-.09h0c30.1,28.71,66.23,43.16,108.28,43.25,43.53-.09,80.68-15.47,111.43-46.13,3.8-3.8,7.23-7.6,10.56-11.49,2.32,1.11,4.91,1.67,7.69,1.67,5,0,9.17-1.76,12.69-5.37h.18c3.52-3.52,5.28-7.78,5.19-12.78,0-4.91-1.76-9.17-5.37-12.78-1.02-1.11-2.22-2.04-3.43-2.78h0ZM425.47,501.77c2.04.09,3.8.56,5.37,1.57.83.37,1.57,1.02,2.32,1.67,2.04,2.13,3.06,4.63,3.06,7.5s-1.02,5.46-3.06,7.5h0v.19h0c-2.13,2.04-4.72,3.06-7.69,2.96-2.32.09-4.45-.55-6.21-1.85h0l-.19-.19h0c-.46-.28-.83-.74-1.2-1.11-2.04-2.04-3.06-4.54-2.96-7.5-.09-2.87.93-5.37,2.96-7.5h.19c2.04-2.13,4.54-3.15,7.41-3.24h0Z"/>
  <path class="cls-1" d="M406.85,456.85v.28h0c-.83.19-1.57.46-2.32.65h0l-.28.37h0c-.65.65-1.3,1.3-2.04,1.95h0v.09h0v.28c-.28.74-.56,1.39-1.02,2.04v4.63h0v.18h.28c0,.19.09.46.19.56.65,1.48,1.57,2.69,2.78,3.7h.09s.19.09.28.19c.93.37,1.94.74,2.87,1.3,1.11,0,2.22.09,3.33.19.65.09,1.3,0,1.85-.09,1.57-.37,2.78-1.11,3.61-2.22.09-.18.28-.37.46-.56.37-1.02.93-1.95,1.48-2.68h0v-.09h0c.37-1.58.37-2.87,0-3.98-.28-1.2-.65-2.22-1.11-3.15h0v-.09h-.28c-.46-.46-.93-1.11-1.39-1.76h0l-.09-.09h-.28c-1.95-1.39-4.72-1.85-8.24-1.67h-.19ZM403.61,463.33v-.37c.37-1.02.93-1.76,1.67-2.5q.09-.09.18-.28c1.58-.83,3.34-.93,5.37-.28,1.67.37,3.24,1.11,4.54,2.04.74,1.48,1.02,3.06.65,4.72h0v.46h0c-.37.28-.56.65-.65,1.11,0,.09,0,.18-.09.28-.37.37-.83.65-1.2,1.11,0,0-.09.19-.09.28-.46.19-1.11.28-1.67.46h0l-.09.19h0c-2.69.09-4.72-.37-6.3-1.39,0-.09-.09-.09-.19-.09-.46-.56-1.02-1.02-1.48-1.48-.09-.19-.18-.19-.18-.28-.37-1.11-.56-2.41-.46-3.98h0Z"/>
  <path class="cls-1" d="M370.82,510.48c-.18.28-.18.46-.18.65,0,.28,0,.46.18.65.37.28.65.65.93,1.02.46.65,1.02,1.3,1.57,1.85,1.11,1.2,2.22,2.5,3.33,3.71.65.74,1.3,1.57,1.85,2.59-3.06-1.02-6.02-1.85-9.17-2.69-1.11-.37-2.13-.65-3.24-1.11-1.58-.56-2.96-.37-3.89.74h0l-.28.28v.09h0c.37.37.74.83,1.2,1.3,2.96,3.8,6.11,7.6,9.45,11.21h0v.28h.28c.56-.19,1.02-.46,1.39-.84.37-.28.56-.56.46-.83-.09-.19-.37-.37-.83-.56-.09-.09-.19-.18-.19-.28-2.31-2.87-4.63-5.65-6.95-8.52,4.82,1.3,9.45,2.69,14.08,4.26.19,0,.37-.09.56-.18.46-.28,1.11-.65,1.76-.93h0l.09-.09v-.09h0c-.18-.74-.37-1.2-.65-1.67-3.33-3.61-6.48-7.32-9.54-11.12h0v-.09l-.19-.18h-.19c-.74,0-1.3.18-1.85.56h0Z"/>
  <path class="cls-1" d="M377.49,503.44v.09h0v.46c-.09.46-.28.93-.65,1.2h0l-.09.19v.28h0v3.52h0l.37.28h0c.28.83.65,1.57,1.3,2.13h.09c.19-.19.46-.28.74-.46.37-.19.74-.46.83-.65.18-.19.18-.46,0-.65-.09-.09-.09-.19-.19-.28-.65-1.02-.83-2.41-.65-4.07h0l.28-.09h0c.18-.46.28-.93.37-1.3.09-.09.19-.09.28-.09.28-.37.55-.65.74-1.02h.37c.65-.28,1.39-.65,2.13-.93h1.57l.09.09h0c.83.19,1.57.55,2.32.83h0l.09.37h.09c1.94,1.11,3.33,2.87,4.08,5.19v.37c-.28,2.04-1.11,3.61-2.41,4.73-.09,0-.19,0-.28.09-1.11.65-2.32.74-3.71.28h0v-.09l-.19-.19h-.09c-.65.28-1.11.83-1.39,1.76h0v.09h0c0,.19,0,.37.09.37,1.39.56,3.06.74,5,.56h0l.09-.09v-.09h0c.19-.19.37-.28.46-.46h0v.09h0c1.48-.74,2.69-1.85,3.71-3.06h0l.18-.09h0v-.37c.19-.46.28-.93.65-1.3h0v-.09h0v-.46c.19-1.2.19-2.59,0-3.89h-.09v-.19h-.28c0-.19-.09-.37-.09-.46-.46-.56-.83-1.3-1.02-2.04h0v-.19h-.09l-.19-.18h0c-.93-.93-1.94-1.76-2.96-2.69-1.02-.37-2.04-.74-3.06-1.02-1.3-.46-2.5-.46-3.8.09-1.95.74-3.52,1.85-4.72,3.43h0Z"/>
  <path class="cls-1" d="M407.78,476.85c-2.32-.92-4.63-2.04-6.67-3.15-.74-.56-1.76-.93-2.87-1.11h-.19v.46h0c-1.39,2.87-2.78,5.65-4.26,8.24v.28c0,.37.09.65.28.83.28.28.65.37.93.37.28.09.56-.09.74-.28.46-.74.93-1.48,1.3-2.32.74-1.48,1.48-2.96,2.32-4.26h.09c4.08,1.94,8.24,3.89,12.41,5.93h.09l.28.09h0c.18.19.37.19.65,0,0-.18.18-.56.28-.92.19-.37.37-.74.37-1.2-.09-.19-.28-.28-.46-.28-.65-.09-1.11-.28-1.39-.56-.19-.19-.37-.37-.56-.46-1.02-.65-2.13-1.11-3.34-1.67h0Z"/>
  <path class="cls-1" d="M392.68,484.26h-.19l-.18.18h0c-.28.37-.46.74-.74,1.11-.46.56-.74,1.11-1.2,1.67-1.57,2.32-3.15,4.73-4.72,7.04h0v.09h0c.09.55.28.93.56,1.11.19.09.28.19.46.28.28.28.56.28.83.19.28-.19.37-.37.65-.74.46-1.02,1.02-2.04,1.57-2.97,1.11-1.67,2.22-3.24,3.61-4.72.56.65,1.2,1.11,1.95,1.48.93.46,1.67,1.02,2.13,1.85h0v.09l-.09.09h0c-1.67,2.13-3.24,4.35-4.54,6.67h-.09l-.19.28.19.09h0c.28.46.65.93,1.11,1.39h.09c.28,0,.37-.09.46-.09,1.67-2.69,3.52-5.28,5.37-7.69.93.84,1.85,1.58,2.96,2.22.37.09.46.37.56.74h0l-.18.09h0c-1.3,2.5-2.87,4.82-4.63,6.95h0v.37h0c-.28.28-.37.56-.18.84.09.18.46.37.93.56.28.19.56.19.74.09.28-.09.46-.28.65-.65.18-.19.28-.37.46-.56,1.95-2.69,3.8-5.56,5.47-8.61h0v-.19h0c-.28-.37-.74-.74-1.2-.93-4.26-2.69-8.52-5.47-12.6-8.34h0Z"/>
  <path class="cls-1" d="M396.94,514.64v-.09h0c.09-.28.09-.46,0-.65-.09-.19-.28-.28-.56-.28h-3.52c-.28,0-.37,0-.37.09-.09.74-.46,1.2-1.02,1.39h-.09v.09h0c0,.18,0,.28.09.37.28.55.37,1.39.19,2.59h0v.09h.09c.09.46.19.74.28.83.28.19.46.09.93-.18.56-.37.83-1.02.74-1.85-.09-.56-.28-1.02-.28-1.58h0c1.48.56,2.69.28,3.52-.83h0Z"/>
  <path class="cls-1" d="M365.45,533.91v-3.8h0v-.09h0c-.28-.65-.56-1.21-.83-1.76-.74-1.67-1.76-3.06-2.96-4.17h0l-.28-.28h-.19c-.65-.19-1.2-.46-1.67-.83h0l-.19-.09h-.37c-2.41-.46-4.54-.19-6.48.74h0l-.09.09v.09h0c-1.11.84-2.22,1.85-3.15,2.87h0v.46h0c-.09.65-.37,1.3-.65,1.85v.37c0,1.48.09,2.96.28,4.35h0l.09.09h.18c.37.56.65,1.2.93,1.95h0v.18h.28c.93,1.3,2.04,2.5,3.24,3.52h.37c.74.09,1.3.28,1.76.65h.56c2.13,0,3.98-.37,5.56-1.02h.09c.74-.74,1.39-1.48,2.04-2.31.56-.74,1.11-1.58,1.48-2.41v-.46h0ZM363.04,533.26v.28h0c-.37.37-.56.83-.65,1.39h0v.28h0c-.65.46-1.2.93-1.76,1.48,0,.09-.09.09-.09.19-.46.19-1.02.37-1.57.56h0l-.09.37h-2.32c-.37-.46-.83-.74-1.39-.92h-.37c-1.2-1.2-2.22-2.59-2.96-4.17-.09-.18-.19-.37-.19-.56h0l-.37-.09h0v-3.43h0v-.19h0c.83-1.11,1.76-2.04,2.96-2.59.46-.37.83-.65,1.3-.93h2.04c.28.19.65.37,1.02.65,1.3.56,2.32,1.39,3.15,2.41.74,1.48,1.11,3.15,1.3,5.28h0Z"/>
  <path class="cls-1" d="M344.7,531.78h-.19c0-.09-.09-.19-.18-.28-.74-.19-1.48-.46-2.13-.83h-.56c-2.32.09-4.35.56-6.02,1.39h-.09v.37h0c-.56.46-1.11.93-1.67,1.39h0l-.18.09h0v.46c0,.37-.19.65-.46.83h-.18v.18h0v3.15h0v.09l.18.09.09-.09h0c.56,1.02,1.3,1.85,2.32,2.5,1.57.19,3.15.19,4.63,0,1.39-.28,3.06-.37,4.82-.28h0l.09.09h0c.74.37,1.11,1.11,1.02,2.22-.09,0-.18.09-.18.19-.83,1.11-1.85,1.95-3.24,2.5h-2.32c0-.19-.09-.28-.18-.28-.74-.19-1.11-.65-1.2-1.48h0l-.09-.09h0c-.19,0-.28,0-.37.09h-.19c-.46.28-1.02.37-1.67.55h0l-.09.18v.09h0c0,.19,0,.28.09.37.28.83.74,1.57,1.3,2.22h.56c.46.19.93.37,1.2.65h3.06l.09-.09h-.09c2.04-.56,3.8-1.48,5-2.78h0v-.09h0c.09-.09.09-.19.18-.28.19-.37.37-.83.56-1.3h0v-.18h0v-2.04h0l-.28-.28v.19h0c-.37-1.11-.83-1.94-1.48-2.59h-.09c-.83-.19-1.67-.28-2.59-.28-1.02-.09-1.95,0-2.87.19-1.3.19-2.87.28-4.63.09h0l-.28-.19h0c-.46-.28-.74-.74-.83-1.39h0v-.37h0c.18-1.11.56-1.95,1.3-2.59.09,0,.19-.09.19-.19.83-.28,1.58-.56,2.32-.93h2.41c.09.09.19.09.37.18.74.37,1.39.93,1.95,1.48-.09.19,0,.28.09.19.65.09,1.2-.09,1.48-.46h.19v-.09h.19c-.19-1.11-.65-1.95-1.3-2.59h0Z"/>
  <path class="cls-1" d="M289.59,301.42v-.18h-.56c-.93.18-1.85.37-2.78.46h-.09l-.09.09h0c0,4.91.09,9.82.19,14.63,0,.28-.09.37-.09.65-.09.65,0,1.11.28,1.39.37.19.83.28,1.57.09h.09c.74-.37,1.02-1.2.74-2.59-.46-2.69-.65-5.56-.65-8.8,0-.83.19-1.48.46-2.04.46,2.13,1.11,4.17,1.85,6.02.83,2.04,1.57,4.08,2.32,6.21.18.74.74,1.11,1.85,1.02.74,0,1.2-.28,1.2-1.02.09-.19.09-.37.28-.56.28-.46.46-1.02.65-1.76,0-.19,0-.37.09-.56.65-2.41,1.48-4.63,2.22-6.85.28-.65.46-1.3.74-1.85,0,1.2,0,2.41.09,3.52.19,1.11.19,2.41.19,3.89-.09,1.02-.09,2.04-.28,3.06-.09.65,0,1.2.28,1.58.28.37.74.56,1.39.56.19-.09.37-.19.37-.28.65-.74.93-1.76.93-3.15-.09-1.48-.18-3.15-.37-4.63-.19-2.41-.28-5.19-.19-8.06,0-.19-.09-.37-.09-.46-.46-.56-1.11-.74-2.22-.56h-.37c-.37.09-.56.18-.65.37-.19.19-.28.46-.37.74-.28.46-.56,1.11-.83,1.85-.28,1.11-.56,2.32-.83,3.71-.09.09-.09.19-.09.37-.65,2.41-1.48,4.72-2.41,6.76-1.57-4.63-3.15-9.17-4.82-13.62h0Z"/>
  <path class="cls-1" d="M272.64,291.79c-.28-1.02-.74-1.76-1.57-2.32h0l-15.19-9.35,8.15-15.1h0c.46-1.02.56-1.94.28-2.96-.28-.93-.93-1.58-1.76-2.04-.93-.46-1.94-.65-2.87-.37-.93.28-1.67.93-2.04,1.76h0l-9.36,17.13h0c-23.71,7.23-44.92,20.38-63.82,39.27-30.75,30.66-46.13,67.8-46.13,111.34,0,22.23,4.08,42.79,12.13,61.69-3.52,3.52-5.28,7.69-5.28,12.69.09,5,1.85,9.26,5.37,12.78,3.43,3.43,7.69,5.19,12.69,5.09,2.69.09,5.19-.37,7.5-1.39,1.95-.83,3.61-2.13,5.28-3.7,3.52-3.61,5.28-7.87,5.37-12.78-.09-5-1.85-9.26-5.37-12.78-3.52-3.52-7.78-5.28-12.78-5.28-2.41,0-4.54.37-6.58,1.2-7.32-17.69-10.93-36.87-10.93-57.52,0-41.5,14.73-76.88,44-106.15,18.06-18.06,38.35-30.57,60.85-37.51h0l16.58,10.28h0c.83.56,1.67.74,2.69.56,1.02-.28,1.76-.83,2.32-1.67.56-.93.65-1.85.46-2.87h0ZM152.6,503.53c0-2.97.93-5.56,3.06-7.6h.19c.37-.47.74-.93,1.2-1.21h.09c1.76-1.3,3.8-1.95,6.11-1.95,2.96,0,5.46,1.02,7.6,3.15,2.13,2.04,3.15,4.63,3.15,7.6s-1.02,5.46-3.15,7.5h-.09c-.93.93-1.95,1.67-2.96,2.13h0l-.28.28h0c-1.3.46-2.78.74-4.26.74-2.96,0-5.56-1.02-7.6-3.15-2.13-2.04-3.06-4.63-3.06-7.5h0Z"/>
  <path class="cls-1" d="M273.38,303.27c-1.48.09-2.78.37-3.89.65-.93.28-1.85.37-2.78.46h0l-.09.28h0c.46,1.95.74,3.98,1.2,6.02.09.65.28,1.39.46,2.22.56,2.41.93,4.91,1.2,7.69,0,.18.09.28.09.37.37.28.93.37,1.76.09h.65c.19-.09.28-.19.19-.46,0-.47,0-.83-.09-1.11-.09-.37-.28-.74-.28-1.02-.28-1.02-.56-2.04-.74-3.15-.19-.74-.19-1.3,0-1.58.09-.09.28-.09.37-.09,1.02-.46,2.22-.65,3.71-.65h0l.09.18h0c.18.09.28.28.37.37,1.76,1.57,3.52,3.24,5.19,5h.09c.09,0,.19.09.19.09.65.37,1.57.46,2.69.37h.19c.18-.37.28-.74.18-.93-.09-.28-.28-.46-.65-.65-.09,0-.19-.09-.19-.18-.09-.19-.19-.37-.28-.56-.56-.46-1.2-1.11-1.67-1.76-1.11-1.2-2.41-2.13-3.8-2.87,1.2-.37,2.13-.93,2.78-1.58h0v-.46h0c.19-.46.46-.93.65-1.39h0l.09-.19v-.18h0v-1.76h0l-.09-.19h-.09c-.28-1.02-.74-1.76-1.3-2.41h0v-.19h-.37c-.46-.19-.93-.37-1.3-.65h-.09c-1.39,0-2.69,0-3.98.19h-.46ZM278.29,308.46v.46c-.56.65-1.48,1.11-2.69,1.39-.09-.09-.19,0-.19.18-1.57.19-3.06.37-4.54.65h0l-.09.09h0c-.37-.55-.65-1.39-.74-2.31-.09-.74-.19-1.48-.37-2.13v-.46c2.04-.28,3.98-.65,5.93-.84.46-.09.93-.09,1.3.09.18.09.46.19.65.28.46.65.83,1.48.74,2.59h0Z"/>
  <path class="cls-1" d="M304.13,317.82c.19.46.65.74,1.57.65h.28c.74-.19,1.3-.65,1.57-1.3.37-1.2,1.02-2.22,1.76-3.15.56,0,1.02.09,1.58.09.46.18,1.11.28,1.76.28,1.3,0,2.41.19,3.24.65h.09c.28,1.48.56,2.97.74,4.45h0v.19h.28l.09.09h0c.37.46,1.02.65,1.95.65h.09c.37,0,.56-.28.65-.56,0-.28,0-.65-.28-1.2,0-.19-.09-.37-.09-.56-.28-1.2-.65-2.22-.93-3.15-.56-1.94-1.02-3.98-1.48-6.02-.37-1.39-.74-2.78-1.11-4.26v-.37c.09-.56-.09-1.02-.28-1.39-.19-.37-.56-.56-1.02-.56-1.02-.19-1.67,0-2.04.56-.28.37-.65.83-.83,1.39-2.41,4.63-5,9.17-7.6,13.43h0v.09h0ZM313.03,306.79c.09-.46.28-.74.37-1.02.09-.09.19-.28.28-.46.56,2.22,1.11,4.63,1.57,7.13-.37.09-.83.09-1.48,0-.83-.18-1.48-.28-2.04-.37-.46-.09-.83-.28-1.2-.37h0l-.09-.18h0c.65-1.02,1.3-2.04,1.95-3.15.19-.46.46-1.11.65-1.58h0Z"/>
  <path class="cls-1" d="M326.83,304.85c-.37-.28-.65-.37-.83-.19-.28,0-.46.19-.56.65-.09.56-.19,1.21-.37,1.76-.46,1.02-.83,2.22-1.11,3.61-.65,2.13-1.3,4.35-1.85,6.67-.18.83-.37,1.48-.74,2.13h0v.37c-.09.56-.09.83.09,1.11.28.09.56.19,1.11.09.28.28.46.46.74.37.19,0,.37-.28.56-.74.09-.28.18-.56.28-.83.09-.37.09-.65.28-.83.37-.93.65-1.95.93-3.15h0l.09-.19h0c1.02-.37,1.94-.83,2.87-1.3,1.11,3.24,2.22,6.3,3.24,9.45h0l.09.09h.37c.56.28,1.39.56,2.22.65h.37v-.18h0c-1.3-3.8-2.59-7.6-3.89-11.39,1.48-.65,2.96-1.39,4.35-2.13,1.39-.83,2.69-1.58,3.89-2.5h0l.09-.09v-.09h-.09l-.19-.28h0c-.74.19-1.3.09-1.76,0-.56-.46-1.02-.46-1.39-.18-.09,0-.28.09-.37.18-2.96,1.76-5.93,3.43-9.17,5,.28-1.02.56-1.95.74-2.96.28-1.11.65-2.13,1.2-2.96h0v-.46h0c.19-.65.19-1.11,0-1.39-.28-.28-.65-.37-1.2-.28h0Z"/>
  <path class="cls-1" d="M220.77,326.06l-.09.09h0c0,.46-.09.83-.19,1.11-.28.56-.56,1.2-.74,1.67h0l-.18.18h0v3.06h0l.18.09h0c.19.37.28.74.37,1.11.46,1.39,1.11,2.59,2.04,3.52,1.11,1.11,2.41,2.13,3.89,2.96h.56c1.39.18,2.96.18,4.45,0h.28v-.37h0c.65-.28,1.3-.56,2.04-.74h0v-.09l.09-.09h0c1.11-1.02,2.13-2.32,2.96-3.71h0l.28-.18h0c.46-2.41.28-4.45-.56-6.11-1.02-1.85-2.22-3.33-3.8-4.45-.65-.56-1.39-.93-2.22-1.11-.19-.09-.37-.19-.56-.28-.65-.37-1.58-.37-2.78,0-1.39.28-2.69.65-3.98,1.2h0l-.09.19v.09h0c-.65.65-1.3,1.3-1.95,1.85h0ZM222.72,328.1c.28-.19.37-.56.46-.93.28-.28.56-.56.83-.92.09,0,.19-.09.19-.19.74-.37,1.48-.65,2.41-.92h0l.09-.09h1.95c.83.37,1.58.83,2.22,1.39.83.56,1.58,1.3,2.22,2.04.28.74.55,1.48.83,2.32,0,.09,0,.18.19.28v2.59c-.28.46-.46.93-.65,1.3h0v.09h0c-.09.09-.09.19-.09.28-.93.74-1.85,1.39-2.78,1.94-1.02.46-1.85.56-2.59.28-.93-.28-1.67-.46-2.41-.83-1.57-1.67-2.78-3.8-3.52-6.39h0v-.09h0c.37-.37.56-1.02.56-1.94h0l.09-.19Z"/>
  <path class="cls-1" d="M245.41,312.35c-.46-.28-.93-.28-1.58.09-1.2.65-2.59,1.39-3.98,2.04-1.67.83-3.43,1.58-5.28,2.32h0l-.19.28.19.09h0c0,.19.09.46.19.65,2.22,4.63,4.63,9.26,7.04,13.71.09.18.18.28.37.28.65.09,1.2,0,1.67-.19h.09v-.09h0c.09,0,.09-.19.19-.19v-.46c-.74-1.21-1.39-2.59-2.04-3.98-.46-.74-.74-1.67-.93-2.69h.19c1.94-.93,3.98-1.85,6.21-2.78h0v-.09l.09-.09h0c.37-.37.28-.92-.09-1.76h0c-.56-.46-1.2-.46-1.95,0-.56.28-1.02.55-1.48.83-.28.09-.46.19-.56.28h-.09c-1.02.74-2.22,1.2-3.71,1.48h0l-.09-.09h0c-.65-1.11-1.2-2.5-1.57-4.07h0l.09-.09h0c2.13-1.39,4.54-2.5,7.04-3.43h0l.19-.09v-.18h0c.37-.37.37-.93,0-1.67h0v-.09Z"/>
  <path class="cls-1" d="M254.3,308.37c-.46.28-.65.74-.65,1.3-.18,2.22-.18,4.45,0,6.76.09,1.02,0,1.76-.37,2.22h0l-.18.18v.28h0v6.85c.09.09.09.19.18.28,0,.28.19.37.46.37.19,0,.56-.09,1.11-.18h0v-.19h0c.65-.46.93-1.39.74-2.87-.19-1.11,0-2.04.37-2.68h0v-.09h0c2.04-.65,3.98-1.48,6.02-2.22h0l.09.09h0c1.3,1.11,2.32,2.41,3.15,3.98h0l.09.09h0c.19,0,.37-.09.56-.09h-.19c.65-.19,1.39-.46,2.13-.56h0v-.09l.19-.28h0c0-.09-.09-.19-.19-.28,0-.18-.09-.28-.09-.37-.93-1.11-1.85-2.13-2.69-3.06-2.41-2.78-4.91-5.56-7.41-8.24-.46-.46-.74-1.02-1.02-1.67h0v-.18h-.09c-.09-.09-.28-.09-.46,0-.56.18-1.11.37-1.67.65h-.09ZM256.06,317.91h-.09v-6.76c1.57,1.76,3.06,3.43,4.45,5.28-1.2.74-2.69,1.2-4.35,1.48h0Z"/>
  <path class="cls-1" d="M254.3,366.26c6.02-1.95,10.1-2.13,12.13-.65,2.59,1.02,3.7,4.54,3.61,10.47-.09,5.93-.37,11.3-.65,16.12-.46,15.28,4.63,24.45,15.19,27.51h0l7.04,1.2-13.62,67.25h0c-1.02,3.61.46,5.56,4.72,5.93,3.98.65,6.3-1.85,6.95-7.41h0l10.47-64.93h0c3.98,0,9.36-1.39,16.02-4.17,6.85-2.96,13.15-9.82,18.89-20.75,5.09-9.82,8.43-22.69,10.1-38.44-2.04,9.26-6.39,19.91-13.15,31.86-6.76,11.95-16.67,18.52-29.64,19.73h0l6.48-52.89-14.08,52.8-8.06-1.02h0c-7.04-2.04-9.82-11.95-8.61-29.82.37-12.04-1.76-18.8-6.3-20.38-5.28-1.85-11.12.65-17.51,7.6h0Z"/>
  <path class="cls-1" d="M215.31,339.3h-.19c-1.95,1.95-3.8,3.8-5.65,5.74-1.3-1.58-2.87-3.15-4.45-4.45-.18-.19-.28-.19-.37-.19-.56.19-1.11.46-1.57.83h0v.18h-.09c-.09.74.18,1.2.83,1.39.09,0,.19,0,.28.09,3.15,3.8,6.58,7.32,10.28,10.65-.09.19,0,.28.09.19.74.09,1.3-.28,1.58-.84h0l.18-.09h0c.19-.28.09-.56-.09-.65-1.76-1.76-3.43-3.61-5-5.65h.09c1.94-1.94,3.98-3.8,6.11-5.56.65.92,1.39,1.76,2.22,2.5.93.65,1.67,1.48,2.32,2.59h0l.09.28h.46c.74-.19,1.2-.46,1.39-1.21.19,0,.37,0,.37-.18.09-.19,0-.46-.19-.74-.19-.19-.28-.28-.46-.46-3.43-3.43-6.85-6.95-10.28-10.47,0-.28-.09-.37-.18-.37-1.02-.09-1.58.18-1.85.93h-.09v.09h-.19v.09h0c1.2,1.85,2.69,3.61,4.35,5.28h0Z"/>
  <path class="cls-1" d="M198.63,350.79h.37c1.11-.19,2.04-.09,2.69.28h0l.09.09h0c.28,0,.37,0,.46-.19.19-.65.37-1.2.74-1.76,0-.19,0-.37-.09-.37-1.3-.55-2.87-.65-4.63-.55h-.19v.37h0c-.37.09-.83.18-1.2.28h0l-.28.19v.28h0c-.65.65-1.3,1.2-2.04,1.76h0v.09h0c0,.19,0,.28-.09.37-.37.93-.83,1.94-1.39,2.87v3.15h0v.09l.18.09.19-.09h0c0,.18.09.37.19.65.83,1.76,2.04,3.33,3.43,4.72h.09c.65,0,1.02.19,1.3.65.09.19.28.28.46.28.93.09,1.57.37,2.13.83h0l.09.09h3.89c1.85-.83,3.43-2.13,4.45-3.89.37-.56.65-1.21,1.02-1.85h0v-.18h0v-3.52h0v-.09h-.37c0-.28-.09-.46-.19-.56-.37-.74-.65-1.39-.93-2.13h0l-.09-.28h0c-.19.09-.37.09-.46.28-.65.28-1.11.65-1.39,1.2h-.37v.28h0c.46.74.83,1.58,1.2,2.41h0v.37h0v1.94h0l-.09.09h0c-.28.37-.46.83-.56,1.3-.09,0-.19.09-.19.18-.65.74-1.39,1.39-2.13,1.94h-3.24c-.09-.09-.19-.18-.37-.18-2.04-.93-3.71-2.04-5-3.61h0v-.37h0c-.19-.46-.46-.93-.65-1.3v-2.69q.09-.09.09-.18c.28-.46.37-.83.56-1.2.09,0,.19-.09.19-.09.65-.83,1.39-1.48,2.13-2.04h0Z"/>
  <path class="cls-1" d="M196.97,373.02c-1.2-.74-2.32-1.39-3.43-2.04-.09-.09-.09-.19-.09-.28-1.67-3.06-3.15-6.3-4.54-9.54h0l-.09-.09h-.09c-.28-.28-.46-.37-.65-.19-.18,0-.37.19-.56.46-.56,1.02-.56,1.95,0,2.69.09.09.19.19.19.37.37,1.11.83,2.13,1.39,2.96.09.19.19.28.37.46.74.84,1.3,2.04,1.57,3.43-1.11,0-2.32,0-3.43.09-1.02.09-2.04.09-3.15,0-1.02,0-1.76.18-2.22.65-.09,0-.18,0-.18.09-.37.65-.74,1.21-1.2,1.76h0v.46h.09c3.89-.37,7.78-.65,11.76-1.02.09.18.28.28.37.46h.18c1.2.65,2.32,1.39,3.34,2.22.56.37,1.11.56,1.67.56.46-.09.83-.28,1.2-.74.19-.28.37-.56.37-.74,0-.28-.18-.56-.56-.74-.19-.19-.37-.28-.46-.37-.65-.28-1.2-.65-1.85-.93h0Z"/>
  <path class="cls-1" d="M193.82,384.69h-.19c-.28-.46-.37-.83-.56-1.3h0l-.09-.09h-.09c-.56-.65-1.2-1.2-1.95-1.76h0l-.18-.09h-3.15l-.09.09h0c-.93.56-1.67,1.2-2.22,1.94-1.3,1.67-2.5,3.34-3.71,5.09-.18,0-.37.09-.46.18-.18.28-.65.37-1.2.19-.93-.28-1.39-1.02-1.39-2.22-.09-.19-.09-.28,0-.46.09-1.02.37-2.04.74-2.96.09,0,.19-.09.28-.09.37-.55.83-.92,1.39-1.3h.18c.83.09,1.48.09,1.85-.28.37-.19.56-.65.56-1.39.09-.09.19-.28.19-.37,0-.18-.09-.28-.28-.37-.28-.09-.74-.19-1.39-.19-.93.09-1.76.19-2.5.46h-.19v.09h0c-.19.46-.46.83-.83,1.02-.19.09-.37.18-.46.37-.56.65-.93,1.39-1.2,2.13-.09.56-.37.92-.65,1.3h0l-.09.18h0v3.52h0l.09.19h.09c.37.74.74,1.48,1.3,2.04h0l.28.18h.18c.46.19,1.02.37,1.48.65h2.13l.09-.18-.09-.18h0c.46-.19.83-.37,1.3-.46h.28v-.09l.09-.19h0c1.67-1.85,3.24-3.89,4.82-6.02.09,0,.19,0,.28-.09.37-.28.83-.46,1.67-.28.09.09.28.28.37.28.74.28,1.11,1.02,1.11,2.04h0v.37h0c-.18,1.11-.56,2.22-1.02,3.34h0l-.09.09h0c-.65.74-1.39,1.39-2.22,2.04h-.19c-1.67-.28-2.5.19-2.69,1.3,0,.09.09.28.19.37.56.74,1.67,1.02,3.24.83,1.76-.83,3.06-1.94,4.08-3.61.83-1.48,1.11-3.52.93-6.11h0v-.18Z"/>
  <path class="cls-1" d="M175.2,395.34l-.18.19h.18c-.46.19-.93.28-1.3.46h0l-.09.19h0c-.93,1.2-1.58,2.69-2.04,4.54-.19.93-.46,2.04-.65,3.15-.09.18-.09.28-.18.37.09.83,0,1.39-.28,1.67h0l-.28.18h0c.19.74.65,1.21,1.39,1.39.74,0,1.39.09,2.13.19,1.3.28,2.59.65,3.98.93,2.69.56,5.28,1.2,7.69,1.85.65.18,1.11.18,1.39,0,.37-.19.56-.55.56-1.2.09-.46.09-.83,0-1.02-.19-.28-.56-.46-1.02-.46s-1.02-.09-1.57-.19h-.46c-1.3-.18-2.5-.46-3.43-1.02h0l.09-.09h0c.74-2.32,1.11-5.09,1.02-8.24h0l-.09-.09h-.28c-.46-.93-1.11-1.67-1.76-2.41h0l-.09-.09h-.28c-1.2-.28-2.69-.46-4.35-.28h-.09ZM173.9,402.47c.09-.92.28-1.76.65-2.41.09-.37.28-.65.37-.93.09-.18.18-.37.37-.46.09-.19.28-.37.37-.55.56-.19,1.11-.28,1.76-.37h.19c.56.46,1.11.74,1.76,1.11h0v.28h0c.37.83.46,1.76.19,3.06-.09.65-.28,1.29-.46,2.04-.09.65-.28,1.3-.37,2.04-1.67-.56-3.43-1.02-5.28-1.48.37-.28.46-.83.46-1.57-.09-.19-.09-.46,0-.74h0Z"/>
  <path class="cls-1" d="M169.83,416.18v.18h0c0,.37-.09.65-.28.83-.19.19-.28.37-.28.56,0,.74-.18,1.3-.56,1.58h0v.09h0v.37c0,2.13.28,3.98,1.11,5.47h0l.09.09h.19c1.85,2.78,5.28,3.98,10.19,3.52.37-.28.83-.46,1.39-.65.28,0,.46-.19.65-.28.19-.09.37-.18.56-.18.56-.37.93-.65,1.3-1.11.83-1.11,1.57-2.32,2.22-3.52h0v-.46h0v-3.89h0l-.09-.19h0c-.28-.37-.46-.74-.65-1.3-.28-.83-.83-1.48-1.48-2.04-1.02-.83-2.04-1.57-3.15-2.22h-.09c-.37,0-.74-.09-1.02-.09-.65-.28-1.3-.37-2.04-.37-1.3,0-2.5.19-3.61.56-1.76.65-3.33,1.67-4.45,3.06h0ZM171.96,417.85c.56-.46,1.11-1.02,1.67-1.48.09-.09.09-.18.19-.37.37-.09.93-.28,1.48-.37h0l.19-.28h0c2.32-.09,4.17.09,5.65.65.19.09.37.09.46.19.83.74,1.58,1.67,2.13,2.59h0l.28.18h0v3.43c-.28.37-.46.84-.65,1.3-.09.09-.09.28-.09.37-.46.28-.83.65-1.2,1.02-.09,0-.19.19-.28.28-.37.19-.83.28-1.2.56h0l-.19.09h-5.09c-.46-.28-.93-.46-1.39-.65h-.28c-.46-.56-.93-1.2-1.48-1.67,0-.09-.09-.19-.18-.19-.19-.46-.37-1.02-.56-1.57h0l-.09-.09h0v-2.04h0v-.19h0c.28-.46.46-.92.65-1.39h0v-.37Z"/>
  <path class="cls-1" d="M185.66,431.1v-.28h-.28c-2.78,1.58-5.09,3.61-6.85,6.11-.56-1.94-1.67-3.24-3.52-3.8h-2.5l-.28.09v.09h0c-.46.19-.83.37-1.3.55h-.09c-.09.19-.28.37-.46.65-.09.09-.18.28-.28.47-.28.46-.65.92-.93,1.29h0v.19h0c-.09.93,0,1.85.09,2.78,0,.74.09,1.57.19,2.41.19,1.76.28,3.61.37,5.37h0l.09.09h.19c1.48-.19,3.06-.37,4.82-.37h.74c2.22-.18,4.26-.37,6.39-.65.74-.09,1.67-.09,2.69,0,.65,0,1.2-.09,1.57-.37.37-.19.46-.56.46-1.11.09-.56,0-1.02-.28-1.2-.09-.28-.46-.28-.93-.18-.83,0-1.76.18-2.59.28-.93.28-2.22.28-3.61.19h0v-.19l-.09-.09h0c-.28-1.11-.37-2.31-.28-3.71.93-1.02,1.85-2.04,2.78-2.96.19-.09.37-.28.46-.46.93-.83,1.95-1.57,3.06-2.22.19,0,.28,0,.28-.09.09-1.02.09-1.95.09-2.87h0ZM175.85,436.93c.28,1.11.46,2.22.46,3.43.09,1.2.28,2.13.56,2.96.09.19.09.28,0,.37h-.19c-.56.37-1.3.55-2.41.46-.83,0-1.57.09-2.32.19-.19-2.13-.19-4.35-.37-6.48,0-.19,0-.28-.09-.37.46-.65,1.11-1.11,1.85-1.48h.09c1.11-.19,1.85.18,2.13.83h0l.28.09Z"/>
  <path class="cls-1" d="M174.55,452.31c-1.11.28-2.32.46-3.61.56h0l-.09.09v.09h0v.37h0v.09h0c.18.56.46,1.2.74,1.76h0v.09h.19c1.3-.09,2.41-.28,3.24-.56,1.2-.37,2.31-.65,3.52-.93,1.76-.74,3.89-1.11,6.48-1.02h0l.09.18h0c.56.37,1.02.65,1.3,1.11v.37c.19.37.46.74.65,1.2h0v.09h0c.37,1.85.09,3.34-.83,4.54-1.85.65-3.7,1.2-5.65,1.58-2.13.56-4.08,1.02-6.02,1.57-.18-.09-.28,0-.37.09-.28.28-.46.55-.37.92-.09.28-.09.56.18.93,0,.19.09.46.28.56h.37c.46-.09.93-.09,1.39-.28.65-.28,1.48-.56,2.5-.74h.28c.83-.09,1.57-.19,2.22-.37,2.41-.56,4.63-1.39,6.67-2.22h0v-.09l.28-.09h0c.19-.37.46-.65.83-.92h.09v-.46c.18-.46.37-.93.65-1.3h0v-.09h0v-3.98h0v-.09h-.19c-.46-1.85-1.2-3.24-2.32-4.26h-.28c-.56-.28-1.02-.46-1.48-.74h-.19c-3.06,0-5.74.37-8.15,1.2-.74.28-1.57.56-2.41.74h0Z"/>
  <path class="cls-1" d="M190.76,465.18c-.37-.09-.56-.09-.65,0-.28.09-.28.37-.28.74.19.93.46,1.85.74,2.78.56,1.39,1.11,2.69,1.76,3.89.37.74.65,1.57.74,2.5-.09,0-.19.09-.19.19-1.48.65-2.87,1.3-4.45,1.94-.56-1.58-1.2-3.15-1.95-4.63-.09-.28-.19-.46-.28-.74-.37-.56-.56-1.11-.65-1.85,0-.46-.19-.84-.56-1.02-.28-.19-.74-.28-1.3-.09h-.19v.09h0c-.28.09-.37.28-.28.37-.09.92.09,1.76.46,2.5.09.19.09.28.09.46.37,1.3.83,2.41,1.48,3.52.37.56.65,1.3.83,2.13-.19,0-.28.09-.37.09-1.11.83-2.41,1.3-4.08,1.67-1.02-2.59-2.04-5.19-2.96-7.78-.18-.56-.46-.93-.83-1.02-.46-.09-1.02,0-1.67.37h0l-.09.09h0c0,.46.09.93.18,1.3.19.37.28.65.46,1.02.09.28.28.65.46.93.46.83.83,1.76,1.11,2.78.65,2.04,1.48,3.8,2.5,5.37h.09c2.69-1.02,5.28-2.04,7.87-2.96,2.59-1.02,5.09-2.04,7.5-3.24h0v-.28h0c-1.2-2.96-2.32-5.84-3.52-8.71-.28-.56-.46-1.02-.56-1.58-.19-.56-.28-.93-.56-1.02-.28-.19-.65-.09-.93.18h0Z"/>
  <path class="cls-1" d="M183.35,488.15v.18h-.09c-.09.18,0,.28.09.37.37.56.83,1.11,1.39,1.57h.19c1.39-.74,2.69-1.48,3.98-2.31.56-.37,1.11-.74,1.57-1.11,1.57-1.02,3.15-1.85,5-2.69-2.22,4.45-4.45,8.89-6.58,13.34-.09.19-.09.28,0,.46.28.56.65,1.02,1.11,1.48.09.19.28.28.46.28.28,0,.56-.09.74-.28,4.26-2.69,8.61-5.28,13.06-7.78h.09l.19-.09h.09c-.09-.74-.19-1.39-.65-1.95-.19-.18-.37-.18-.37-.09-1.95.83-3.71,1.76-5.56,2.78-1.67,1.11-3.43,2.13-5.19,3.15,2.04-4.45,4.17-8.71,6.3-12.97h0v-.47h0c-.09-.92-.46-1.57-1.2-1.94-.18-.18-.37-.18-.37-.09-.28.09-.46.19-.65.37-.19.09-.28.19-.46.28-4.26,2.59-8.71,5.09-13.15,7.5h0Z"/>
  <path class="cls-1" d="M209.93,498.16c-.74.28-1.3.83-1.67,1.48-2.04,4.91-4.26,9.54-6.58,14.08-.09.19-.09.37,0,.56.28.74.74,1.3,1.39,1.85h.09c1.02-.09,1.85-.37,2.59-.83.09,0,.19-.09.28-.09,1.2-.37,2.32-.74,3.33-1.21,2.04-.83,3.98-1.57,5.93-2.32,1.3-.55,2.5-1.11,3.8-1.58.09-.09.28-.09.37-.18.56-.46.65-1.02.09-1.58-.09-.09-.28-.18-.37-.28-.19-.19-.37-.28-.56-.28-.74.09-1.3.19-1.85.46-.18.09-.37.18-.56.28-.74.55-1.67.93-2.59,1.2h0l-.19-.19h0c-1.57-1.57-3.06-3.24-4.45-4.91h0l.09-.19h0c.74-1.3,1.39-2.59,2.04-4.07v-.37c-.19-.83-.56-1.39-1.11-1.85h0l-.09-.09v.09h0ZM207.89,507.14v-.09h0c1.2.93,2.22,2.04,3.06,3.33-.83.74-1.95,1.2-3.15,1.48-.74.28-1.39.56-1.95.93-.46.19-.83.28-.93.28-.18,0-.18-.09-.18-.19,1.11-1.95,2.13-3.8,3.15-5.74h0Z"/>
  <path class="cls-1" d="M220.22,509.46h-.19v.09h0v.37c-.37,3.89-.65,7.78-.74,11.85h-.19c-2.96.37-6.02.65-9.17.74h-.19v.19h0c0,.09.09.28.19.37.56.46,1.11.93,1.57,1.39h0l.28.19h0c3.43-.09,6.85-.46,10.19-.93.65-.09,1.02-.09,1.2,0h0v.09h0c-1.67,1.76-3.15,3.71-4.54,5.65h-.09l-.09.18v.09h0c0,.65.46,1.02,1.3,1.11.28.28.56.28.93.19.28-.19.56-.46.74-.93.28-.56.65-1.11,1.2-1.57,0-.09.09-.19.19-.28,1.02-1.2,1.95-2.32,2.87-3.52,1.58-1.94,3.15-3.89,4.72-5.74h.19l.18-.09v-.19h0c0-.74-.37-1.3-.93-1.58h-.46l-.09-.09h-.28c-1.3,1.3-2.5,2.78-3.61,4.26h-3.52c.28-3.24.46-6.58.65-9.91h0v-.18l-.09-.09h-.28c-.46-.65-1.11-1.3-1.94-1.67h0Z"/>
  <path class="cls-1" d="M258.1,532.89v-.19h-.19c-3.33-1.3-6.67-2.68-9.73-4.26-.65-.37-1.11-.46-1.39-.19-.37,0-.56.37-.56.93h0l-.37.19-.09.28h0c0,.09.09.28.28.37.56.28,1.11.56,1.67.74.83.37,1.67.74,2.41,1.11,1.67.65,3.24,1.39,4.82,2.13h0v.19h0c-.65,1.67-1.39,3.33-2.04,4.91-2.41-1.11-4.72-2.04-7.04-3.06-.19-.09-.37-.18-.46-.28h.18c-.46-.37-.83-.37-1.11-.19-.19.19-.37.56-.56,1.11-.19.19-.19.37-.09.65.09.19.28.37.65.56.19,0,.37.09.56.19.65.46,1.39.74,2.13,1.11.18,0,.28,0,.46.09,1.57.56,3.06,1.11,4.54,1.85h0v.19h0c-.74,1.39-1.39,2.78-2.04,4.17-2.87-1.02-5.47-2.22-7.97-3.43-.28-.09-.46-.19-.56-.28-.19-.18-.37-.18-.56,0-.19,0-.37.19-.56.46h0l-.09.28h0c0,1.2.56,1.94,1.67,2.13.19,0,.37.09.65.18.93.46,1.85.83,2.87,1.21,1.95.74,3.8,1.57,5.56,2.59h.09l.09-.09h0c1.11-1.85,2.04-3.71,2.87-5.74.74-2.04,1.57-4.08,2.41-6.02.56-1.11,1.11-2.41,1.48-3.89h0Z"/>
  <path class="cls-1" d="M238.74,522.89c-1.39-.83-3.06-1.11-5.19-1.11h-.09c-.09,0-.09.09-.09.19h.09c-1.2.37-2.13.93-2.87,1.67h0v.09h0c-.09.09-.09.19-.19.37-.09.46-.28.92-.46,1.39h-.09v1.85h.09c.74,1.57,1.76,2.96,2.96,4.07,1.11,1.02,2.13,2.22,2.87,3.71h0v.09h0c-.19.56-.46,1.21-.83,1.67h-.28c-1.3.28-2.5.09-3.71-.65,0-.09-.09-.09-.19-.19-.65-.46-1.2-1.02-1.57-1.67,0-.65,0-1.2.19-1.76v-.74c-.09-.28-.19-.46-.37-.56-.09-.09-.28-.18-.37-.28-.37-.28-.56-.37-.74-.37-.37,0-.56.09-.65.37-.28.55-.56,1.11-.93,1.67h0l-.09.19h0c0,.19.09.28.09.37.28.74.56,1.58.65,2.5h0v.18h.37c.65.83,1.48,1.58,2.22,2.32h0l.09.18h.28c.74.28,1.39.65,2.13,1.02h3.24l.18-.19h.09l-.09-.09h0c.37-.28.83-.46,1.3-.56h.09v-.09l.09-.09h0c.56-.74.93-1.48,1.3-2.31h0v-.37h0v-1.39h0v-.19h0c-.83-1.48-1.85-2.78-2.96-3.8-1.11-1.02-1.95-2.13-2.59-3.52,0-.18-.09-.37-.09-.37-.28-.28-.18-.65.09-1.2h0l.19-.09h0c.56-.83,1.67-1.11,3.33-.93h0l.09.09h0c1.67.74,2.87,1.85,3.8,3.33v.28c.09,1.02,0,1.76-.37,2.22h0v.19h0c0,.19,0,.28.09.37.46.28.93.56,1.48.74h0v.28h0c.18-.09.28-.19.37-.37.83-1.02,1.2-2.59,1.02-4.54h0l-.28-.18h-.09c-.83-1.58-1.95-2.87-3.34-3.8h-.28Z"/>
  <path class="cls-1" d="M267.55,535.21h-4.08v.18h0c-.56.19-1.2.37-1.67.56h0l-.09.09v.09h0c-.93.65-1.58,1.39-2.22,2.31h0v.28h0c-.09.28-.09.46,0,.74.19.18.37.46.83.65h.09c.19,0,.28.09.28.09.19.09.37.09.46,0,.74-.65,1.48-1.39,2.13-2.22h.37c.46-.19.93-.37,1.39-.65h1.57l.09.09h0c.83.28,1.57.55,2.41.83,0,.09,0,.18.09.28.65.65,1.2,1.48,1.57,2.41v.46c.09,3.7-.74,6.48-2.59,8.24-.09.09-.28.09-.37.09-.46.19-.93.46-1.39.65h-2.96c-.09-.09-.19-.19-.28-.19-.46-.18-.74-.37-1.2-.46,0-.09,0-.19-.09-.28-.28-.28-.56-.56-.83-.74-.19-.93-.37-1.67-.65-2.22-.28-.83-1.11-1.02-2.5-.65h-.09l-.18.18h0v1.57h0l.28.37h0c.19.09.28.28.46.56.46,1.02,1.11,1.95,1.95,2.87h0v.09h.37c.65.28,1.48.74,2.13,1.11h.19c.74-.18,1.3-.18,1.67.09.28.09.46.09.74,0,.56-.28,1.3-.37,2.41-.09h0c2.22-1.02,3.71-2.59,4.63-4.72.19-.74.46-1.48.83-2.22h0v-.09h0v-5.28h0v-.09h0c-.83-1.58-1.76-2.96-3.15-3.98-.18-.09-.37-.19-.56-.19-.83-.09-1.48-.37-1.85-.83h-.18Z"/>
  <path class="cls-1" d="M258.47,554.75c0,.28.09.37.19.37,1.67.74,2.87.56,3.89-.37,0,.74.19,1.2.65,1.48.46.28.93.65,1.48.83.37-.09.74-.28.74-.65.09-.28-.09-.74-.37-1.3-.37-.56-.65-1.2-.93-1.76h0v-.09h-.46c-.74-.56-1.39-.74-1.85-.46-.19,0-.37,0-.46.09-.74.74-1.67,1.3-2.69,1.76h-.19v.09Z"/>
  <path class="cls-1" d="M201.13,515.76c-.28,0-.56,0-.74.09-.56.37-1.39.37-2.41.28h-.18l-.19.19h0c0,.09.09.28.19.37.56.46,1.11,1.02,1.67,1.58h.19c.65-.19,1.39-.28,2.13-.47.46,0,.93-.18,1.11-.28.09-.28.09-.65-.19-1.02-.18-.56-.74-.83-1.57-.74h0Z"/>
  <path class="cls-1" d="M322.57,536.78c.09,1.2.37,2.41.74,3.52v.46c.09.83.19,1.48.46,2.04.56,2.41,1.2,4.72,1.85,7.13.18.28.18.46.28.65h0l-.28.09v.19l-.09.09h0c-1.67.37-3.24.74-4.72,1.2h0l-.09.09h0c-.09.74,0,1.2.19,1.48.37.37.83.37,1.48.28.74-.19,1.57-.28,2.41-.46,1.85-.37,3.61-.83,5.37-1.3.28-.09.56-.28.83-.46.46-.09,1.02-.18,1.58-.18s1.02-.09,1.3-.46c.19-.28.28-.74.19-1.39-.09-.28-.19-.56-.37-.65-.19-.09-.46-.09-.83,0-.46.09-1.02.19-1.48.28-1.11.18-2.13.56-2.87.93-1.2-4.26-2.32-8.52-3.34-12.87-.09-.09-.09-.19-.09-.28,0-.65-.09-1.02-.37-1.11-.28-.18-.65-.09-1.11.19h-.65c-.28.09-.37.28-.37.56h0Z"/>
  <path class="cls-1" d="M299.5,554.2c1.39-1.39,2.13-2.97,2.13-4.91s-.74-3.71-2.13-5.19c-1.39-1.39-3.06-2.04-5.09-2.04s-3.71.65-5.09,2.04c-1.39,1.48-2.13,3.15-2.04,5.19-.09,1.94.65,3.52,2.04,4.91,1.39,1.39,3.15,2.22,5.09,2.22s3.71-.83,5.09-2.22h0Z"/>
</svg>